<?xml version="1.0" ?><!DOCTYPE svg  PUBLIC '-//W3C//DTD SVG 1.1//EN'  'http://www.w3.org/Graphics/SVG/1.1/DTD/svg11.dtd'><svg enable-background="new 0 0 512 512" height="512px" id="Layer_1" version="1.1" viewBox="0 0 512 512" width="512px" xml:space="preserve" xmlns="http://www.w3.org/2000/svg" xmlns:xlink="http://www.w3.org/1999/xlink"><g><path d="M512,256c0,141.386-114.623,256-256,256C114.614,512,0,397.386,0,256S114.614,0,256,0    C397.377,0,512,114.614,512,256z" fill="#E65325"/><g><g><path d="M402.184,403.044c-2.284,7.893-10.613,12.487-18.506,10.207L63.404,320.699      c-7.898-2.284-12.496-10.609-10.211-18.511l55.838-193.229c2.285-7.901,10.612-12.491,18.508-10.207l320.27,92.548      c7.9,2.28,12.495,10.609,10.215,18.51L402.184,403.044z" fill="#EBEBEB"/><rect fill="#9DC8E6" height="197.761" transform="matrix(0.9607 0.2776 -0.2776 0.9607 81.1205 -60.8995)" width="310.956" x="100.13" y="157.122"/><path d="M437.242,356.571c0,8.219-6.727,14.945-14.945,14.945H88.919c-8.219,0-14.946-6.727-14.946-14.945      V155.433c0-8.223,6.727-14.945,14.946-14.945h333.377c8.219,0,14.945,6.723,14.945,14.945V356.571z" fill="#EBEBEB"/><rect fill="#446F92" height="197.76" width="310.957" x="100.128" y="157.12"/><rect fill="#9FCA7C" height="52.887" width="310.976" x="100.109" y="303.952"/><path d="M364.969,194.349c0,10.3-8.351,18.646-18.65,18.646c-10.301,0-18.646-8.346-18.646-18.646      c0-10.301,8.346-18.65,18.646-18.65C356.618,175.698,364.969,184.048,364.969,194.349z" fill="#FBF5AC"/></g><g><polygon fill="#FFFFFF" points="167.566,199.998 149.707,230.945 209.302,272.238     "/><polygon fill="#7EA163" points="221.224,292.868 209.302,272.238 149.707,230.945 113.959,292.868 100.109,316.88       100.109,341.893 249.519,341.893     "/></g><g><polygon fill="#FFFFFF" points="220.618,190.402 197.296,227.673 294.063,307.784     "/><polygon fill="#9FCA7C" points="315.405,341.893 294.063,307.784 197.296,227.673 125.83,341.893     "/></g></g></g></svg>