<?xml version="1.0" ?><!DOCTYPE svg  PUBLIC '-//W3C//DTD SVG 1.1//EN'  'http://www.w3.org/Graphics/SVG/1.1/DTD/svg11.dtd'><svg enable-background="new 0 0 512 512" height="512px" id="Layer_1" version="1.1" viewBox="0 0 512 512" width="512px" xml:space="preserve" xmlns="http://www.w3.org/2000/svg" xmlns:xlink="http://www.w3.org/1999/xlink"><g><g><path d="M512,256c0,7.562-0.315,15.046-0.946,22.408c-0.115,1.261-0.231,2.484-0.354,3.703     C499.753,390.3,421.416,478.6,318.269,504.361C298.338,509.323,277.507,512,256,512c-5.593,0-11.146-0.196-16.662-0.554     c-11.262-0.708-22.331-2.161-33.115-4.331c-4.139-0.827-8.238-1.73-12.292-2.754C82.554,476.631,0,375.927,0,256     C0,114.608,114.654,0,256,0C375.654,0,476.124,82.039,504.2,192.908c3.039,11.931,5.239,24.219,6.5,36.746     C511.57,238.315,512,247.1,512,256z" fill="#E74C3C"/><path d="M512,256c0,7.562-0.315,15.046-0.946,22.408c-0.115,1.261-0.231,2.484-0.354,3.703     C499.753,390.3,421.416,478.6,318.269,504.361C298.338,509.323,277.507,512,256,512c-5.593,0-11.146-0.196-16.662-0.554     c-11.262-0.708-22.331-2.161-33.115-4.331c-4.139-0.827-8.238-1.73-12.292-2.754c-44.27-44.308-86.093-86.139-86.093-86.139     c-13.277-9.646-21.977-25.246-21.977-42.808V135.72c0-29.143,23.823-52.974,52.969-52.974h234.376     c17.569,0,33.162,8.704,42.815,21.977c0,0,44.031,44.031,88.177,88.185c3.039,11.931,5.239,24.219,6.5,36.746     C511.57,238.315,512,247.1,512,256z" opacity="0.2"/><g><g><g><path d="M426.185,375.4c0,29.138-23.839,52.977-52.97,52.977h-234.4c-29.131,0-52.969-23.839-52.969-52.977        V135.716c0-29.139,23.838-52.978,52.969-52.978h234.4c29.131,0,52.97,23.839,52.97,52.978V375.4z" fill="#ECF0F1"/><rect fill="#BDC3C7" height="117.292" width="340.223" x="85.846" y="180.962"/><rect fill="#849394" height="26.161" width="340.223" x="85.846" y="327.823"/><path d="M373.215,271.446c0,64.73-52.477,117.2-117.2,117.2c-64.73,0-117.2-52.47-117.2-117.2        c0-64.724,52.469-117.192,117.2-117.192C320.739,154.254,373.215,206.723,373.215,271.446z" opacity="0.2"/><path d="M373.215,255.562c0,64.724-52.477,117.192-117.2,117.192c-64.73,0-117.2-52.469-117.2-117.192        c0-64.73,52.469-117.2,117.2-117.2C320.739,138.361,373.215,190.831,373.215,255.562z" fill="#FFFFFF"/><circle cx="256.015" cy="255.562" fill="#77B3D4" r="94.685"/><path d="M256.015,171.47c50.5,0,91.654,39.568,94.416,89.384c0.1-1.761,0.269-3.508,0.269-5.292        c0-52.292-42.392-94.685-94.685-94.685c-52.292,0-94.685,42.393-94.685,94.685c0,1.784,0.17,3.531,0.262,5.292        C164.362,211.038,205.507,171.47,256.015,171.47z" opacity="0.2"/><path d="M320.685,255.562c0,35.708-28.954,64.661-64.67,64.661c-35.715,0-64.661-28.953-64.661-64.661        c0-35.716,28.946-64.669,64.661-64.669C291.731,190.893,320.685,219.846,320.685,255.562z" fill="#FFFFFF"/><path d="M298.708,255.562c0,23.577-19.115,42.692-42.692,42.692c-23.584,0-42.699-19.115-42.699-42.692        c0-23.585,19.115-42.7,42.699-42.7C279.592,212.861,298.708,231.977,298.708,255.562z" fill="#334D5C"/><path d="M258.1,239.008c0,7.915-6.415,14.323-14.323,14.323c-7.907,0-14.323-6.408-14.323-14.323        s6.416-14.323,14.323-14.323C251.685,224.685,258.1,231.093,258.1,239.008z" fill="#FFFFFF"/><path d="M387.539,133.254c0,7.915-6.415,14.323-14.323,14.323c-7.915,0-14.323-6.408-14.323-14.323        c0-7.916,6.408-14.323,14.323-14.323C381.124,118.931,387.539,125.338,387.539,133.254z" fill="#E74C3C"/></g></g><path d="M176.493,140.339c0,4-3.185,7.238-7.108,7.238h-53.123c-3.923,0-7.108-3.238-7.108-7.238v-23.193      c0-4,3.185-7.246,7.108-7.246h53.123c3.924,0,7.108,3.246,7.108,7.246V140.339z" fill="#FFFFFF"/><path d="M111.954,143.185v-23.192c0-4,3.177-7.238,7.107-7.238h53.116c1.246,0,2.354,0.408,3.361,0.969      c-1.208-2.238-3.462-3.823-6.154-3.823H116.27c-3.938,0-7.116,3.246-7.116,7.246v23.193c0,2.738,1.554,5.038,3.754,6.261      C112.354,145.569,111.954,144.446,111.954,143.185z" fill="#D6D6D6"/><rect fill="#BDC3C7" height="5.938" width="67.339" x="109.154" y="115.893"/><rect fill="#BDC3C7" height="5.939" width="67.339" x="109.154" y="125.769"/><rect fill="#BDC3C7" height="5.938" width="67.339" x="109.154" y="135.654"/></g></g></g></svg>